<svg xmlns="http://www.w3.org/2000/svg" viewBox="0 0 160 36" fill="none">
  <path d="M4 8h6.5c4.2 0 6.8 2.2 6.8 5.8 0 2.8-1.5 4.8-4 5.5l4.8 8.7h-4.2l-4.2-8H8v8H4V8zm4 4v5.2h2.8c2 0 3.2-1 3.2-2.6s-1.2-2.6-3.2-2.6H8z" fill="#111827"/>
  <path d="M24 18.5l-2.8-1c-.4-.15-.7-.35-.7-.7 0-.55.5-.9 1.3-.9.9 0 1.6.4 2 1l2.2-2c-.9-1.2-2.4-1.9-4.2-1.9-2.6 0-4.5 1.5-4.5 3.7 0 1.8 1.1 2.9 3 3.6l2.5.9c.5.2.8.4.8.8 0 .6-.5 1-1.5 1s-1.8-.5-2.3-1.3l-2.3 2c1 1.4 2.6 2.2 4.6 2.2 2.8 0 4.7-1.5 4.7-3.8 0-1.9-1.2-3-2.8-3.6z" fill="#07A889"/>
  <text x="20" y="27" font-family="Inter, -apple-system, sans-serif" font-weight="800" font-size="24" letter-spacing="-1" fill="#111827">rankify</text>
  <circle cx="148" cy="23" r="3" fill="#07A889"/>
</svg>